<svg version="1.1" id="Capa_1" xmlns="http://www.w3.org/2000/svg" xmlns:xlink="http://www.w3.org/1999/xlink" x="0px" y="0px" viewBox="0 0 512 512" xml:space="preserve" width="65" height="65"><linearGradient id="SVGID_1_" gradientUnits="userSpaceOnUse" x1="236.9375" y1="77.8075" x2="236.9375" y2="38.5375" gradientTransform="matrix(1.0667 0 0 -1.0667 3.2667 557.5334)"><stop offset="0" stop-color="#00A6F9"></stop><stop offset="1" stop-color="#0071E2"></stop></linearGradient><path fill="#008BF2" d="M512,26.853v458.293C512,499.97,499.97,512,485.147,512H26.853C12.03,512,0,499.97,0,485.147 V26.853C0,12.03,12.03,0,26.853,0h458.293C499.97,0,512,12.03,512,26.853z"></path><path fill="rgb(0, 139, 242)" d="M445.155,113.87c-0.233,0-0.463,0.012-0.694,0.017c0.258-2.115,0.394-4.27,0.394-6.454 c0-29.133-23.617-52.751-52.75-52.751c-21.698,0-40.334,13.102-48.433,31.825c-1.887-0.757-3.945-1.178-6.102-1.178 c-9.055,0-16.396,7.341-16.396,16.396c0,2.759,0.685,5.358,1.889,7.639c-11.61,4.341-19.877,15.531-19.877,28.655 c0,16.893,13.694,30.587,30.587,30.587h111.383c15.115,0,27.369-12.253,27.369-27.369C472.524,126.123,460.27,113.87,445.155,113.87 z"></path><linearGradient id="SVGID_2_" gradientUnits="userSpaceOnUse" x1="477.1878" y1="327.0078" x2="354.2378" y2="449.9579" gradientTransform="matrix(1.0667 0 0 -1.0667 3.2667 557.5334)"><stop offset="1.000000e-004" stop-color="#008BF2" stop-opacity="0"></stop><stop offset="1" stop-color="#0046E2"></stop></linearGradient><path fill="url(#SVGID_2_)" d="M448.781,124.954c-0.013-0.026-0.038-0.038-0.051-0.051c-0.973-0.909-2.483-0.87-3.392,0.09 l-4.57,4.851l-32.346-31.488c-0.243-0.576-0.717-1.062-1.344-1.318c-1.242-0.474-2.624,0.154-3.098,1.395l-5.466,14.362 c-0.461,1.216,0.128,2.573,1.306,3.059L512,228.749v-40.576L448.781,124.954z"></path><linearGradient id="SVGID_3_" gradientUnits="userSpaceOnUse" x1="423.8175" y1="58.3975" x2="65.0475" y2="417.1675" gradientTransform="matrix(1.0667 0 0 -1.0667 3.2667 557.5334)"><stop offset="1.000000e-004" stop-color="#008BF2" stop-opacity="0"></stop><stop offset="1" stop-color="#0046E2"></stop></linearGradient><path fill="url(#SVGID_3_)" d="M512,238.95v246.195C512,499.968,499.968,512,485.146,512h-326.17L44.608,397.338 c-0.026-0.038-0.051-0.077-0.09-0.115c-0.55-0.653-1.101-1.318-1.638-1.984c-0.038-0.051-0.077-0.102-0.115-0.154 c-3.866-4.89-7.155-10.266-9.741-16.026c-4.262-9.51-6.656-20.032-6.656-31.117c0-32.64,20.57-60.48,49.434-71.27 c-2.995-5.67-4.698-12.134-4.698-18.995c0-22.528,18.266-40.781,40.781-40.781c0.678,0,1.37,0.013,2.035,0.051 c0.333,0.013,0.666,0.051,0.998,0.077c0.333,0.026,0.666,0.038,0.998,0.077c0.448,0.038,0.883,0.102,1.331,0.154 c0.205,0.026,0.422,0.051,0.627,0.09c0.512,0.077,1.024,0.166,1.536,0.256c0.128,0.026,0.243,0.038,0.371,0.064 c0.563,0.115,1.126,0.243,1.69,0.371c0.051,0.026,0.115,0.026,0.179,0.051c0.589,0.141,1.178,0.307,1.766,0.474 c0.026,0.013,0.038,0.013,0.064,0.013c0.602,0.192,1.203,0.384,1.805,0.589c0.589,0.205,1.19,0.435,1.779,0.666 c3.43-7.949,7.642-15.462,12.518-22.502c23.667-34.214,63.168-56.653,107.93-56.653c12.915,0,25.382,1.869,37.158,5.35 l-17.894-17.741c-0.96-0.909-1.011-2.419-0.102-3.379c0.909-0.96,2.419-1.011,3.379-0.102l25.638,25.024 c0.282,0.102,0.576,0.218,0.858,0.333c9.472-8.806,20.851-15.578,33.434-19.674l-16.346-16.346l-6.298-14.029 c-0.538-1.203,0-2.624,1.216-3.162c1.203-0.538,2.624,0,3.162,1.203l29.645,29.453c5.299-0.973,10.752-1.51,16.333-1.51 c4.365,0,8.666,0.333,12.864,0.934c-0.064-0.166-0.115-0.32-0.166-0.486c-0.307,0-15.155-15.168-15.155-15.168 c-3.072-0.858-5.325-3.674-5.325-7.014v-9.075c0-4.032,3.264-7.296,7.283-7.296h0.998c3.341,0,6.157,2.266,7.014,5.325L512,238.95z"></path><path fill="#008BF2" d="M181.829,177.328c-0.219,0-0.434,0.011-0.652,0.016c0.242-1.987,0.37-4.011,0.37-6.064 c0-27.369-22.187-49.555-49.555-49.555c-20.384,0-37.89,12.308-45.5,29.898c-1.773-0.711-3.706-1.107-5.732-1.107 c-8.507,0-15.403,6.896-15.403,15.403c0,2.592,0.643,5.034,1.775,7.177c-10.907,4.078-18.673,14.59-18.673,26.919 c0,15.869,12.865,28.734,28.734,28.734h104.636c14.199,0,25.71-11.51,25.71-25.71C207.54,188.839,196.029,177.328,181.829,177.328z"></path><g><linearGradient id="SVGID_4_" gradientUnits="userSpaceOnUse" x1="332.2795" y1="415.4275" x2="332.2795" y2="217.0575" gradientTransform="matrix(1.0667 0 0 -1.0667 3.2667 557.5334)"><stop offset="0" stop-color="#FFC200"></stop><stop offset="0.268" stop-color="#FFBB00"></stop><stop offset="0.659" stop-color="#FFA801"></stop><stop offset="1" stop-color="#FF9102"></stop></linearGradient><path fill="url(#SVGID_4_)" d="M358.195,87.99h-0.994c-4.027,0-7.292,3.264-7.292,7.292v9.071 c0,4.027,3.264,7.292,7.292,7.292h0.994c4.027,0,7.292-3.264,7.292-7.292v-9.071C365.487,91.255,362.223,87.99,358.195,87.99z"></path><linearGradient id="SVGID_5_" gradientUnits="userSpaceOnUse" x1="332.2795" y1="415.4275" x2="332.2795" y2="217.0575" gradientTransform="matrix(1.0667 0 0 -1.0667 3.2667 557.5334)"><stop offset="0" stop-color="#FFC200"></stop><stop offset="0.268" stop-color="#FFBB00"></stop><stop offset="0.659" stop-color="#FFA801"></stop><stop offset="1" stop-color="#FF9102"></stop></linearGradient><path fill="url(#SVGID_5_)" d="M358.195,320.201h-0.994c-4.027,0-7.292,3.264-7.292,7.292v9.071 c0,4.027,3.264,7.292,7.292,7.292h0.994c4.027,0,7.292-3.264,7.292-7.292v-9.071C365.487,323.465,362.223,320.201,358.195,320.201z "></path><linearGradient id="SVGID_6_" gradientUnits="userSpaceOnUse" x1="441.1275" y1="415.4275" x2="441.1275" y2="217.0575" gradientTransform="matrix(1.0667 0 0 -1.0667 3.2667 557.5334)"><stop offset="0" stop-color="#FFC200"></stop><stop offset="0.268" stop-color="#FFBB00"></stop><stop offset="0.659" stop-color="#FFA801"></stop><stop offset="1" stop-color="#FF9102"></stop></linearGradient><path fill="url(#SVGID_6_)" d="M478.338,208.133h-9.071c-4.027,0-7.292,3.265-7.292,7.292v0.994 c0,4.027,3.264,7.292,7.292,7.292h9.071c4.027,0,7.292-3.264,7.292-7.292v-0.994C485.63,211.398,482.366,208.133,478.338,208.133z"></path><linearGradient id="SVGID_7_" gradientUnits="userSpaceOnUse" x1="223.4315" y1="415.4275" x2="223.4315" y2="217.0575" gradientTransform="matrix(1.0667 0 0 -1.0667 3.2667 557.5334)"><stop offset="0" stop-color="#FFC200"></stop><stop offset="0.268" stop-color="#FFBB00"></stop><stop offset="0.659" stop-color="#FFA801"></stop><stop offset="1" stop-color="#FF9102"></stop></linearGradient><path fill="url(#SVGID_7_)" d="M253.421,216.419v-0.994c0-4.027-3.265-7.292-7.292-7.292h-9.071 c-4.027,0-7.292,3.265-7.292,7.292v0.994c0,4.027,3.264,7.292,7.292,7.292h9.071C250.156,223.711,253.421,220.446,253.421,216.419z "></path><linearGradient id="SVGID_8_" gradientUnits="userSpaceOnUse" x1="229.6624" y1="415.4275" x2="229.6624" y2="217.0575" gradientTransform="matrix(1.0667 0 0 -1.0667 3.2667 557.5334)"><stop offset="0" stop-color="#FFC200"></stop><stop offset="0.268" stop-color="#FFBB00"></stop><stop offset="0.659" stop-color="#FFA801"></stop><stop offset="1" stop-color="#FF9102"></stop></linearGradient><path fill="url(#SVGID_8_)" d="M256.277,170.631l-14.371-5.473c-1.236-0.47-2.608,0.153-3.09,1.386 c-0.47,1.236,0.149,2.62,1.386,3.09l14.371,5.473c1.212,0.461,2.564-0.126,3.061-1.313c0.01-0.025,0.02-0.049,0.03-0.074 C258.134,172.486,257.514,171.103,256.277,170.631z"></path><linearGradient id="SVGID_9_" gradientUnits="userSpaceOnUse" x1="434.8975" y1="415.4275" x2="434.8975" y2="217.0575" gradientTransform="matrix(1.0667 0 0 -1.0667 3.2667 557.5334)"><stop offset="0" stop-color="#FFC200"></stop><stop offset="0.268" stop-color="#FFBB00"></stop><stop offset="0.659" stop-color="#FFA801"></stop><stop offset="1" stop-color="#FF9102"></stop></linearGradient><path fill="url(#SVGID_9_)" d="M475.195,262.209l-14.371-5.473c-1.236-0.47-2.608,0.153-3.09,1.386 c-0.47,1.236,0.15,2.62,1.386,3.09l14.371,5.473c1.212,0.461,2.564-0.126,3.061-1.313c0.01-0.025,0.02-0.049,0.03-0.074 C477.052,264.063,476.431,262.679,475.195,262.209z"></path><linearGradient id="SVGID_10_" gradientUnits="userSpaceOnUse" x1="375.2071" y1="415.4275" x2="375.2071" y2="217.0575" gradientTransform="matrix(1.0667 0 0 -1.0667 3.2667 557.5334)"><stop offset="0" stop-color="#FFC200"></stop><stop offset="0.268" stop-color="#FFBB00"></stop><stop offset="0.659" stop-color="#FFA801"></stop><stop offset="1" stop-color="#FF9102"></stop></linearGradient><path fill="url(#SVGID_10_)" d="M407.076,97.04c-1.236-0.47-2.62,0.15-3.09,1.386l-5.473,14.371 c-0.461,1.212,0.126,2.564,1.313,3.061c0.025,0.01,0.049,0.02,0.074,0.03c1.236,0.47,2.62-0.15,3.09-1.386l5.473-14.371 C408.932,98.894,408.309,97.522,407.076,97.04z"></path><linearGradient id="SVGID_11_" gradientUnits="userSpaceOnUse" x1="289.3533" y1="415.4275" x2="289.3533" y2="217.0575" gradientTransform="matrix(1.0667 0 0 -1.0667 3.2667 557.5334)"><stop offset="0" stop-color="#FFC200"></stop><stop offset="0.268" stop-color="#FFBB00"></stop><stop offset="0.659" stop-color="#FFA801"></stop><stop offset="1" stop-color="#FF9102"></stop></linearGradient><path fill="url(#SVGID_11_)" d="M315.499,315.957c-1.236-0.47-2.62,0.15-3.09,1.386l-5.473,14.371 c-0.461,1.212,0.126,2.564,1.313,3.061c0.025,0.01,0.049,0.02,0.074,0.03c1.236,0.47,2.62-0.149,3.09-1.386l5.473-14.371 C317.356,317.811,316.732,316.438,315.499,315.957z"></path><linearGradient id="SVGID_12_" gradientUnits="userSpaceOnUse" x1="253.4281" y1="415.4275" x2="253.4281" y2="217.0575" gradientTransform="matrix(1.0667 0 0 -1.0667 3.2667 557.5334)"><stop offset="0" stop-color="#FFC200"></stop><stop offset="0.268" stop-color="#FFBB00"></stop><stop offset="0.659" stop-color="#FFA801"></stop><stop offset="1" stop-color="#FF9102"></stop></linearGradient><path fill="url(#SVGID_12_)" d="M280.503,292.268c-0.962-0.907-2.478-0.862-3.386,0.101l-10.545,11.193 c-0.907,0.963-0.854,2.469,0.101,3.386c0.963,0.907,2.478,0.862,3.386-0.101l10.545-11.193c0.889-0.944,0.863-2.418-0.045-3.33 C280.541,292.304,280.523,292.286,280.503,292.268z"></path><linearGradient id="SVGID_13_" gradientUnits="userSpaceOnUse" x1="411.1342" y1="415.4275" x2="411.1342" y2="217.0575" gradientTransform="matrix(1.0667 0 0 -1.0667 3.2667 557.5334)"><stop offset="0" stop-color="#FFC200"></stop><stop offset="0.268" stop-color="#FFBB00"></stop><stop offset="0.659" stop-color="#FFA801"></stop><stop offset="1" stop-color="#FF9102"></stop></linearGradient><path fill="url(#SVGID_13_)" d="M448.723,124.897c-0.963-0.907-2.478-0.862-3.386,0.101l-10.545,11.193 c-0.907,0.963-0.854,2.469,0.101,3.386c0.962,0.907,2.478,0.862,3.386-0.101l10.545-11.193c0.889-0.944,0.863-2.418-0.045-3.33 C448.762,124.934,448.742,124.915,448.723,124.897z"></path><linearGradient id="SVGID_14_" gradientUnits="userSpaceOnUse" x1="253.8245" y1="415.4275" x2="253.8245" y2="217.0575" gradientTransform="matrix(1.0667 0 0 -1.0667 3.2667 557.5334)"><stop offset="0" stop-color="#FFC200"></stop><stop offset="0.268" stop-color="#FFBB00"></stop><stop offset="0.659" stop-color="#FFA801"></stop><stop offset="1" stop-color="#FF9102"></stop></linearGradient><path fill="url(#SVGID_14_)" d="M270.059,124.796c-0.963-0.907-2.469-0.854-3.386,0.101 c-0.907,0.962-0.862,2.478,0.101,3.386l11.193,10.545c0.944,0.889,2.418,0.863,3.33-0.045c0.018-0.018,0.037-0.037,0.055-0.057 c0.907-0.963,0.862-2.478-0.101-3.386L270.059,124.796z"></path><linearGradient id="SVGID_15_" gradientUnits="userSpaceOnUse" x1="410.7345" y1="415.4275" x2="410.7345" y2="217.0575" gradientTransform="matrix(1.0667 0 0 -1.0667 3.2667 557.5334)"><stop offset="0" stop-color="#FFC200"></stop><stop offset="0.268" stop-color="#FFBB00"></stop><stop offset="0.659" stop-color="#FFA801"></stop><stop offset="1" stop-color="#FF9102"></stop></linearGradient><path fill="url(#SVGID_15_)" d="M437.429,293.017c-0.963-0.907-2.469-0.854-3.386,0.101 c-0.907,0.963-0.862,2.478,0.101,3.386l11.193,10.545c0.944,0.889,2.418,0.863,3.33-0.045c0.018-0.018,0.037-0.037,0.055-0.057 c0.907-0.963,0.862-2.478-0.101-3.386L437.429,293.017z"></path><linearGradient id="SVGID_16_" gradientUnits="userSpaceOnUse" x1="229.366" y1="415.4275" x2="229.366" y2="217.0575" gradientTransform="matrix(1.0667 0 0 -1.0667 3.2667 557.5334)"><stop offset="0" stop-color="#FFC200"></stop><stop offset="0.268" stop-color="#FFBB00"></stop><stop offset="0.659" stop-color="#FFA801"></stop><stop offset="1" stop-color="#FF9102"></stop></linearGradient><path fill="url(#SVGID_16_)" d="M257.123,256.818c-0.541-1.206-1.958-1.746-3.166-1.205l-14.032,6.292 c-1.206,0.542-1.737,1.952-1.205,3.166c0.541,1.206,1.958,1.746,3.166,1.205l14.032-6.292c1.183-0.53,1.725-1.902,1.236-3.092 C257.145,256.866,257.134,256.842,257.123,256.818z"></path><linearGradient id="SVGID_17_" gradientUnits="userSpaceOnUse" x1="435.197" y1="415.4275" x2="435.197" y2="217.0575" gradientTransform="matrix(1.0667 0 0 -1.0667 3.2667 557.5334)"><stop offset="0" stop-color="#FFC200"></stop><stop offset="0.268" stop-color="#FFBB00"></stop><stop offset="0.659" stop-color="#FFA801"></stop><stop offset="1" stop-color="#FF9102"></stop></linearGradient><path fill="url(#SVGID_17_)" d="M461.439,176.231l14.032-6.292c1.183-0.53,1.725-1.902,1.236-3.092 c-0.01-0.025-0.02-0.048-0.031-0.073c-0.541-1.206-1.958-1.746-3.166-1.205l-14.032,6.292c-1.207,0.542-1.737,1.952-1.205,3.166 C458.815,176.234,460.232,176.773,461.439,176.231z"></path><linearGradient id="SVGID_18_" gradientUnits="userSpaceOnUse" x1="290.0715" y1="415.4275" x2="290.0715" y2="217.0575" gradientTransform="matrix(1.0667 0 0 -1.0667 3.2667 557.5334)"><stop offset="0" stop-color="#FFC200"></stop><stop offset="0.268" stop-color="#FFBB00"></stop><stop offset="0.659" stop-color="#FFA801"></stop><stop offset="1" stop-color="#FF9102"></stop></linearGradient><path fill="url(#SVGID_18_)" d="M311.716,98.149c-0.542-1.206-1.952-1.737-3.166-1.205 c-1.206,0.541-1.746,1.958-1.205,3.166l6.292,14.032c0.53,1.183,1.902,1.725,3.092,1.236c0.025-0.01,0.049-0.02,0.073-0.031 c1.206-0.541,1.746-1.958,1.205-3.166L311.716,98.149z"></path><linearGradient id="SVGID_19_" gradientUnits="userSpaceOnUse" x1="374.4865" y1="415.4275" x2="374.4865" y2="217.0575" gradientTransform="matrix(1.0667 0 0 -1.0667 3.2667 557.5334)"><stop offset="0" stop-color="#FFC200"></stop><stop offset="0.268" stop-color="#FFBB00"></stop><stop offset="0.659" stop-color="#FFA801"></stop><stop offset="1" stop-color="#FF9102"></stop></linearGradient><path fill="url(#SVGID_19_)" d="M401.759,317.702c-0.542-1.206-1.952-1.737-3.166-1.205 c-1.206,0.541-1.746,1.958-1.205,3.166l6.292,14.032c0.53,1.183,1.902,1.725,3.092,1.236c0.025-0.01,0.048-0.02,0.073-0.031 c1.206-0.541,1.746-1.958,1.205-3.166L401.759,317.702z"></path></g><linearGradient id="SVGID_20_" gradientUnits="userSpaceOnUse" x1="332.2775" y1="431.6675" x2="332.2775" y2="229.0275" gradientTransform="matrix(1.0667 0 0 -1.0667 3.2667 557.5334)"><stop offset="0" stop-color="#FFCF95"></stop><stop offset="0.427" stop-color="#FFC954"></stop><stop offset="1" stop-color="#FFC200"></stop></linearGradient><circle fill="url(#SVGID_20_)" cx="357.696" cy="215.925" r="89.824"></circle><linearGradient id="SVGID_21_" gradientUnits="userSpaceOnUse" x1="219.074" y1="517.7595" x2="219.074" y2="75.9775" gradientTransform="matrix(1.0667 0 0 -1.0667 3.2667 557.5334)"><stop offset="0" stop-color="#FFFFFF"></stop><stop offset="1" stop-color="#E8EFEE"></stop></linearGradient><path fill="url(#SVGID_21_)" d="M379.456,287.877c-0.579,0-1.151,0.029-1.726,0.044c0.642-5.262,0.979-10.618,0.979-16.053 c0-72.455-58.737-131.193-131.193-131.193c-53.964,0-100.31,32.587-120.455,79.151c-4.692-1.884-9.81-2.93-15.177-2.93 c-22.521,0-40.777,18.256-40.777,40.777c0,6.863,1.703,13.325,4.698,18.999c-28.874,10.797-49.437,38.625-49.437,71.266 c0,42.013,34.058,76.07,76.07,76.07h277.017c37.591,0,68.066-30.475,68.066-68.066C447.522,318.352,417.047,287.877,379.456,287.877 z"></path><linearGradient id="SVGID_22_" gradientUnits="userSpaceOnUse" x1="220.306" y1="150.1575" x2="220.306" y2="103.3575" gradientTransform="matrix(1.0667 0 0 -1.0667 3.2667 557.5334)"><stop offset="0" stop-color="#C2CECE" stop-opacity="0"></stop><stop offset="0.179" stop-color="#AFBCBC" stop-opacity="0.179"></stop><stop offset="1" stop-color="#5B6A6A"></stop></linearGradient><path fill="url(#SVGID_22_)" d="M33.029,379.055c11.895,26.493,38.49,44.955,69.411,44.955h277.016 c29.477,0,54.571-18.74,64.034-44.955H33.029z"></path><radialGradient id="SVGID_23_" cx="349.5075" cy="166.8375" r="99.09" gradientTransform="matrix(1.0667 0 0 -1.0667 3.2667 557.5334)" gradientUnits="userSpaceOnUse"><stop offset="1.000000e-004" stop-color="#FFFFFF" stop-opacity="0.004"></stop><stop offset="0.356" stop-color="#FDFDFD" stop-opacity="0.355"></stop><stop offset="0.558" stop-color="#F4F5F5" stop-opacity="0.558"></stop><stop offset="0.722" stop-color="#E6E9E9" stop-opacity="0.722"></stop><stop offset="0.865" stop-color="#D3D7D7" stop-opacity="0.865"></stop><stop offset="0.994" stop-color="#B9C0BF" stop-opacity="0.994"></stop><stop offset="1" stop-color="#B8BFBE"></stop></radialGradient><circle fill="url(#SVGID_23_)" cx="379.456" cy="355.947" r="68.066"></circle><radialGradient id="SVGID_24_" cx="118.6175" cy="270.6675" r="70.22" gradientTransform="matrix(1.0667 0 0 -1.0667 3.2667 557.5334)" gradientUnits="userSpaceOnUse"><stop offset="1.000000e-004" stop-color="#FFFFFF" stop-opacity="0"></stop><stop offset="0.21" stop-color="#F8F9F9" stop-opacity="0.208"></stop><stop offset="0.51" stop-color="#E5E8E7" stop-opacity="0.509"></stop><stop offset="0.864" stop-color="#C6CCCB" stop-opacity="0.864"></stop><stop offset="1" stop-color="#B8BFBE"></stop></radialGradient><path fill="url(#SVGID_24_)" d="M102.441,271.868c15.015,0,29.002,4.368,40.793,11.877 c5.885-7.068,9.428-16.156,9.428-26.071c0-22.521-18.256-40.777-40.777-40.777s-40.777,18.256-40.777,40.777 c0,6.863,1.703,13.325,4.698,18.999C84.097,273.572,93.069,271.868,102.441,271.868z"></path><radialGradient id="SVGID_25_" cx="281.8875" cy="191.3675" r="223.8" gradientTransform="matrix(1.0667 0 0 -1.0667 3.2667 557.5334)" gradientUnits="userSpaceOnUse"><stop offset="1.000000e-004" stop-color="#FFFFFF" stop-opacity="0"></stop><stop offset="0.482" stop-color="#FDFDFD" stop-opacity="0.482"></stop><stop offset="0.656" stop-color="#F6F7F7" stop-opacity="0.655"></stop><stop offset="0.779" stop-color="#EBEDEC" stop-opacity="0.779"></stop><stop offset="0.879" stop-color="#DADDDD" stop-opacity="0.879"></stop><stop offset="0.964" stop-color="#C4CAC9" stop-opacity="0.964"></stop><stop offset="1" stop-color="#B8BFBE"></stop></radialGradient><path fill="url(#SVGID_25_)" d="M378.705,271.863c0,5.348-0.324,10.628-0.94,15.808c-0.011,0.067-0.011,0.134-0.022,0.202 h-238.47c8.223-7.451,13.392-18.214,13.392-30.196c0-17.151-10.595-31.829-25.598-37.849 c20.127-46.564,66.479-79.154,120.449-79.154C319.969,140.674,378.705,199.411,378.705,271.863z"></path></svg>