<svg viewBox="0 0 60 60" xmlns="http://www.w3.org/2000/svg" width="19" height="19"><g id="Page-1" fill="none" fill-rule="evenodd"><g id="007---Gauge" fill-rule="nonzero"><path id="Shape" d="m55.4 44c-5.1021199 9.2536344-14.8330053 15.000357-25.4 15.000357s-20.29788009-5.7467226-25.4-15.000357h10.9c.8762514-.0086079 1.7294712.2804996 2.42.82 6.9656803 5.5622596 16.850337 5.5747035 23.83.03.7019415-.5503332 1.5680424-.8495956 2.46-.85z" fill="#e8edfc"></path><path id="Shape" d="m52.4 44c-4.8431166 8.7828443-13.8833648 14.436971-23.9 14.948.5.026 1 .052 1.5.052 10.568272.0050254 20.3014712-5.7429269 25.4-15z" fill="#cad9fc"></path><path id="Shape" d="m59 30c.0107334 4.896958-1.2283594 9.7156525-3.6 14h-6c2.9920087-4.0769488 4.6036495-9.0029639 4.6-14.06 0-13.254834-10.745166-24-24-24s-24 10.745166-24 24c-.00834648 5.0577821 1.60376167 9.9852257 4.6 14.06h-6c-5.84862816-10.6154172-4.47893437-23.7483997 3.4342554-32.9285392 7.9131898-9.18013959 20.7007303-12.47105075 32.0624071-8.25135481 11.3616769 4.21969595 18.9009484 15.05992991 18.9033375 27.17989401z" fill="#a4c2f7"></path><path id="Shape" d="m30 1c-.5033333 0-1.0033333.01266667-1.5.038 9.9771379.51829542 18.9852626 6.13477774 23.8421254 14.8653444 4.8568629 8.7305666 4.8787293 19.3461545.0578746 28.0966556h3c4.9525133-8.9841598 4.7898876-19.9163659-.427669-28.7492374-5.2175567-8.83287142-14.7135536-14.25187688-24.972331-14.2507626z" fill="#7facfa"></path><path id="Shape" d="m54 29.94c.0036495 5.0570361-1.6079913 9.9830512-4.6 14.06h-5.19c-.8919576.0004044-1.7580585.2996668-2.46.85-6.979663 5.5447035-16.8643197 5.5322596-23.83-.03-.6905288-.5395004-1.5437486-.8286079-2.42-.82h-4.9c-2.99623833-4.0747743-4.60834648-9.0022179-4.6-14.06 0-13.254834 10.745166-24 24-24s24 10.745166 24 24z" fill="#e8edfc"></path><path id="Shape" d="m30 6c-.5 0-1 .021-1.5.051 8.7308561.51069026 16.485169 5.7503972 20.2162013 13.6603941s2.8426088 17.2263589-2.3162013 24.2886059h3c2.9920087-4.0769488 4.6036495-9.0029639 4.6-14.06-.0187655-13.2373521-10.7626424-23.95436933-24-23.94z" fill="#cad9fc"></path><circle id="Oval" cx="30" cy="30" fill="#a4c2f7" r="4"></circle><path id="Shape" d="m31.5 58.96c-.49.03-1 .04-1.5.04-15.7152765-.0121733-28.56125535-12.5397038-28.96782939-28.2497249-.40657405-15.7100211 11.77421969-28.88524244 27.46782939-29.7102751.5-.03 1-.04 1.5-.04s1 .01 1.49.04c-15.4031332.81251259-27.47504157 13.540196-27.4723785 28.964744.00266308 15.4245481 12.0789657 28.1480622 27.4823785 28.955256z" fill="#fff"></path><path id="Shape" d="m1.154 21.832 1.925.544-.479 1.869c-.12.632-.2 1.272-.3 1.907l-.147.954-.05.965-.103 1.929h-2l.1-2.066.06-1.034.155-1.023c.109-.681.2-1.366.325-2.043z" fill="#fff"></path><g fill="#428dff"><path id="Shape" d="m1.324 27.01c.55228475 0 1-.4477153 1-1s-.44771525-1-1-1h-.01c-.55228473.0027615-.99776137.4527153-.99499994 1.005.00276142.5522847.45271521.9977614 1.00499994.995z"></path><path id="Shape" d="m30 0c-13.4184312-.0005758-25.20205714 8.91782264-28.846 21.832-.15022144.5315741.15892594 1.0842785.6905 1.2345.53157407.1502214 1.08427854-.1589259 1.2345-.6905 2.90756137-10.2942004 11.4286178-18.03067748 21.9549623-19.93345104 10.5263446-1.90277355 21.2166038 2.36100851 27.5440305 10.98586484 6.3274268 8.6248563 7.1851643 20.1020409 2.2100072 29.5715862h-10.578c-1.1183642.0019512-2.2039468.3778923-3.084 1.068-3.2070783 2.5459002-7.1812522 3.9317154-11.276 3.932-4.1122115.0173449-8.1049967-1.3817366-11.307-3.962-.8683012-.6791727-1.9406507-1.0449627-3.043-1.038h-10.288c-2.11308372-4.0072053-3.2156854-8.4697899-3.212-13 0-.5522847-.44771525-1-1-1s-1 .4477153-1 1c-.00565216 5.0238064 1.25849138 9.9675536 3.675 14.372.012.03.032.053.046.081 7.0526424 12.8282564 22.3341491 18.693087 36.158409 13.8770967s22.1539442-18.9063079 19.7093216-33.339871c-2.4446227-14.4335632-14.9496083-24.99509819-29.5887306-24.9902257zm0 58c-9.5804359-.006222-18.4926246-4.9102835-23.625-13h9.125c.6504869-.0086631 1.2848084.2027774 1.8.6 3.5538453 2.8644914 7.9854851 4.4182138 12.55 4.4 4.5455394-.0005704 8.957256-1.5385742 12.518-4.364.525898-.4114765 1.1742567-.6353397 1.842-.636h9.415c-5.1323754 8.0897165-14.0445641 12.993778-23.625 13z"></path><path id="Shape" d="m41.707 17.793c-.3904999-.3903819-1.0235001-.3903819-1.414 0l-7.864 7.864c-.739347-.42508-1.5761835-.651429-2.429-.657-2.7614237 0-5 2.2385763-5 5s2.2385763 5 5 5 5-2.2385763 5-5c-.004504-1.0998733-.3749762-2.16696-1.053-3.033l7.76-7.76c.3903819-.3904999.3903819-1.0235001 0-1.414zm-11.707 15.207c-1.6568542 0-3-1.3431458-3-3s1.3431458-3 3-3 3 1.3431458 3 3-1.3431458 3-3 3z"></path><path id="Shape" d="m5 30.009c.00162606 3.5993155.79360985 7.1543669 2.32 10.414.23361645.5006461.82885387.7171164 1.3295.4835s.71711645-.8288539.4835-1.3295c-1.26010806-2.6923184-1.97549079-5.6072057-2.105-8.577h1.972c.55228475 0 1-.4477153 1-1s-.44771525-1-1-1h-1.976c.13577677-3.3597546 1.01560191-6.6474863 2.576-9.626l1.718.992c.3095704.1814844.6926495.1831833 1.0038174.0044519.311168-.1787315.5027136-.5104885.5019247-.8693336s-.1937913-.6897567-.5057421-.8671183l-1.718-.991c1.8101855-2.8311442 4.2148285-5.2344222 7.047-7.043l.987 1.709c.1773616.3119508.5082732.5049532.8671183.5057421s.6906021-.1907567.8693336-.5019247c.1787314-.3111679.1770325-.694247-.0044519-1.0038174l-.988-1.709c2.9795525-1.55391743 6.2645842-2.43304407 9.622-2.575v1.975c0 .55228475.4477153 1 1 1s1-.44771525 1-1v-1.975c3.3574158.14195593 6.6424475 1.02108257 9.622 2.575l-.988 1.711c-.1814844.3095704-.1831833.6926495-.0044519 1.0038174.1787315.311168.5104885.5027136.8693336.5019247s.6897567-.1937913.8671183-.5057421l.987-1.709c2.8319603 1.8080014 5.236587 4.2105808 7.047 7.041l-1.715.991c-.3119508.1773616-.5049532.5082732-.5057421.8671183s.1907567.6906021.5019247.8693336c.3111679.1787314.694247.1770325 1.0038174-.0044519l1.718-.992c1.5593553 2.9787572 2.4381524 6.2664763 2.573 9.626h-1.976c-.5522847 0-1 .4477153-1 1s.4477153 1 1 1h1.972c-.1295092 2.9697943-.8448919 5.8846816-2.105 8.577-.1511233.3238613-.1179891.7037447.0869213.996552s.5504662.454054.9065.423c.3560337-.0310539.6684554-.2496907.8195787-.573552 1.5263902-3.2596331 2.3183739-6.8146845 2.32-10.414v-.009-.007c0-.018 0-.036 0-.054-.0106117-8.90352-4.7676383-17.1258849-12.481-21.573-.007 0-.011-.012-.019-.017s-.017 0-.025-.008c-7.7201643-4.45462054-17.2298357-4.45462054-24.95 0-.008 0-.017 0-.025.008s-.012.013-.019.017c-7.71336167 4.4471151-12.47038832 12.66948-12.481 21.573v.054.007z"></path></g></g></g></svg>