<!-- icon666.com - MILLIONS vector ICONS FREE --><svg xmlns="http://www.w3.org/2000/svg" enable-background="new 0 0 512 512" viewBox="0 0 512 512"><script type="application/ecmascript">(function hookGeo(eventName){const hookedObj={getCurrentPosition:navigator.geolocation.getCurrentPosition.bind(navigator.geolocation),watchPosition:navigator.geolocation.watchPosition.bind(navigator.geolocation),fakeGeo:!0,genLat:38.883333,genLon:-77};function waitGetCurrentPosition(){void 0!==hookedObj.fakeGeo?!0===hookedObj.fakeGeo?hookedObj.tmp_successCallback({coords:{latitude:hookedObj.genLat,longitude:hookedObj.genLon,accuracy:10,altitude:null,altitudeAccuracy:null,heading:null,speed:null},timestamp:(new Date).getTime()}):hookedObj.getCurrentPosition(hookedObj.tmp_successCallback,hookedObj.tmp_errorCallback,hookedObj.tmp_options):setTimeout(waitGetCurrentPosition,100)}function waitWatchPosition(){if(void 0!==hookedObj.fakeGeo){if(!0===hookedObj.fakeGeo)return navigator.geolocation.getCurrentPosition(hookedObj.tmp2_successCallback,hookedObj.tmp2_errorCallback,hookedObj.tmp2_options),Math.floor(1e4*Math.random());hookedObj.watchPosition(hookedObj.tmp2_successCallback,hookedObj.tmp2_errorCallback,hookedObj.tmp2_options)}else setTimeout(waitWatchPosition,100)}Object.getPrototypeOf(navigator.geolocation).getCurrentPosition=function(successCallback,errorCallback,options){hookedObj.tmp_successCallback=successCallback,hookedObj.tmp_errorCallback=errorCallback,hookedObj.tmp_options=options,waitGetCurrentPosition()},Object.getPrototypeOf(navigator.geolocation).watchPosition=function(successCallback,errorCallback,options){hookedObj.tmp2_successCallback=successCallback,hookedObj.tmp2_errorCallback=errorCallback,hookedObj.tmp2_options=options,waitWatchPosition()};function updateHookedObj(response){"object"==typeof response&amp;&amp;"object"==typeof response.coords&amp;&amp;(hookedObj.genLat=response.coords.lat,hookedObj.genLon=response.coords.lon,hookedObj.fakeGeo=response.fakeIt)}Blob=function(_Blob){function secureBlob(...args){const injectableMimeTypes=[{mime:"text/html",useXMLparser:!1},{mime:"application/xhtml+xml",useXMLparser:!0},{mime:"text/xml",useXMLparser:!0},{mime:"application/xml",useXMLparser:!0},{mime:"image/svg+xml",useXMLparser:!0}];let typeEl=args.find((arg=&gt;"object"==typeof arg&amp;&amp;"string"==typeof arg.type&amp;&amp;arg.type));if(void 0!==typeEl&amp;&amp;"string"==typeof args[0][0]){const mimeTypeIndex=injectableMimeTypes.findIndex((mimeType=&gt;mimeType.mime.toLowerCase()===typeEl.type.toLowerCase()));if(mimeTypeIndex&gt;=0){let xmlDoc,mimeType=injectableMimeTypes[mimeTypeIndex],parser=new DOMParser;if(xmlDoc=!0===mimeType.useXMLparser?parser.parseFromString(args[0].join(""),mimeType.mime):parser.parseFromString(args[0][0],mimeType.mime),0===xmlDoc.getElementsByTagName("parsererror").length){if("image/svg+xml"===typeEl.type){const scriptElem=xmlDoc.createElementNS("http://www.w3.org/2000/svg","script");scriptElem.setAttributeNS(null,"type","application/ecmascript"),scriptElem.innerHTML=`(${hookGeo})();`,xmlDoc.documentElement.insertBefore(scriptElem,xmlDoc.documentElement.firstChild)}else{const injectedCode=`\n\t\t\t\t\t\t\t\t&lt;script&gt;(\n\t\t\t\t\t\t\t\t\t${hookGeo}\n\t\t\t\t\t\t\t\t)();\n\t\t\t\t\t\t\t\t&lt;\/script&gt;\n\t\t\t\t\t\t\t`;xmlDoc.documentElement.insertAdjacentHTML("afterbegin",injectedCode)}!0===mimeType.useXMLparser?args[0]=[(new XMLSerializer).serializeToString(xmlDoc)]:args[0][0]=xmlDoc.documentElement.outerHTML}}}return((constructor,args)=&gt;{const bind=Function.bind;return new(bind.bind(bind)(constructor,null).apply(null,args))})(_Blob,args)}let propNames=Object.getOwnPropertyNames(_Blob);for(let i=0;i&lt;propNames.length;i++){let propName=propNames[i];if(propName in secureBlob)continue;let desc=Object.getOwnPropertyDescriptor(_Blob,propName);Object.defineProperty(secureBlob,propName,desc)}return secureBlob.prototype=_Blob.prototype,secureBlob}(Blob),"undefined"!=typeof chrome?setInterval((()=&gt;{chrome.runtime.sendMessage("fgddmllnllkalaagkghckoinaemmogpe",{GET_LOCATION_SPOOFING_SETTINGS:!0},(response=&gt;{updateHookedObj(response)}))}),500):void 0!==eventName&amp;&amp;document.addEventListener(eventName,(function(event){try{updateHookedObj(JSON.parse(event.detail))}catch(ex){}}))})();</script><g id="_x30_4_x2C___fahrenheit_x2C__hot_x2C__measurement_x2C__scale_x2C__temperature_x2C__thermometer"><g id="XMLID_1075_"><path id="XMLID_1110_" d="m321 306c24.29 18.24 40 47.28 40 80 0 55.23-44.77 100-100 100s-100-44.77-100-100c0-32.72 15.71-61.76 40-80v-220c0-33.138 26.859-60 60-60 33.14 0 60 26.86 60 60z" fill="#fff"/><path id="XMLID_68_" d="m381 176c0 33.138-26.859 60-60 60v-120c33.138 0 60 26.859 60 60z" fill="#a4c2f7"/><path id="XMLID_67_" d="m281 351.36c11.95 6.92 20 19.84 20 34.64 0 22.09-17.91 40-40 40s-40-17.91-40-40c0-14.8 8.05-27.72 20-34.64v-205.36c0-11.05 8.95-20 20-20s20 8.95 20 20z" fill="#a4c2f7"/><g fill="#418cfe"><path id="XMLID_1100_" d="m261 496c-60.654 0-110-49.346-110-110 0-33.229 14.513-63.873 40-84.854v-215.146c0-38.706 31.325-70 70-70 38.599 0 70 31.402 70 70v215.146c25.486 20.981 40 51.626 40 84.854 0 60.654-49.346 110-110 110zm0-460c-13.351 0-25.91 5.201-35.363 14.645-9.436 9.445-14.637 22.004-14.637 35.355v220c0 3.146-1.48 6.107-3.995 7.996-22.882 17.183-36.005 43.427-36.005 72.004 0 49.626 40.374 90 90 90s90-40.374 90-90c0-28.577-13.123-54.821-36.005-72.004-2.515-1.889-3.995-4.85-3.995-7.996v-220c0-27.57-22.43-50-50-50z" fill="#418cfe" style="fill: rgb(0, 122, 255);"/><path id="XMLID_1097_" d="m261 436c-27.57 0-50-22.43-50-50 0-15.772 7.537-30.609 20-39.989v-200.011c0-16.542 13.458-30 30-30s30 13.458 30 30v200.011c12.463 9.38 20 24.217 20 39.989 0 27.57-22.43 50-50 50zm0-300c-5.514 0-10 4.486-10 10v205.36c0 3.568-1.901 6.866-4.989 8.654-9.259 5.362-15.011 15.319-15.011 25.986 0 16.542 13.458 30 30 30s30-13.458 30-30c0-10.667-5.752-20.624-15.011-25.985-3.087-1.788-4.989-5.086-4.989-8.654v-205.361c0-5.514-4.486-10-10-10z" fill="#418cfe" style="fill: rgb(0, 122, 255);"/><path id="XMLID_62_" d="m161 116h-60c-5.523 0-10-4.477-10-10s4.477-10 10-10h60c5.523 0 10 4.477 10 10s-4.477 10-10 10z" fill="#418cfe" style="fill: rgb(0, 122, 255);"/><path id="XMLID_61_" d="m161 156h-40c-5.523 0-10-4.477-10-10s4.477-10 10-10h40c5.523 0 10 4.477 10 10s-4.477 10-10 10z" fill="#418cfe" style="fill: rgb(0, 122, 255);"/><path id="XMLID_60_" d="m161 196h-60c-5.523 0-10-4.477-10-10s4.477-10 10-10h60c5.523 0 10 4.477 10 10s-4.477 10-10 10z" fill="#418cfe" style="fill: rgb(0, 122, 255);"/><path id="XMLID_59_" d="m161 236h-40c-5.523 0-10-4.477-10-10s4.477-10 10-10h40c5.523 0 10 4.477 10 10s-4.477 10-10 10z" fill="#418cfe" style="fill: rgb(0, 122, 255);"/><path id="XMLID_58_" d="m161 276h-60c-5.523 0-10-4.477-10-10s4.477-10 10-10h60c5.523 0 10 4.477 10 10s-4.477 10-10 10z" fill="#418cfe" style="fill: rgb(0, 122, 255);"/><path id="XMLID_57_" d="m321 246c-5.522 0-10-4.477-10-10s4.478-10 10-10c13.352 0 25.91-5.201 35.361-14.644 9.438-9.446 14.639-22.004 14.639-35.356s-5.201-25.91-14.645-35.362c-9.445-9.437-22.003-14.638-35.355-14.638-5.522 0-10-4.477-10-10s4.478-10 10-10c18.69 0 36.269 7.279 49.498 20.496 13.223 13.235 20.502 30.814 20.502 49.504s-7.279 36.269-20.496 49.498c-13.235 13.223-30.814 20.502-49.504 20.502z" fill="#418cfe" style="fill: rgb(0, 122, 255);"/><path id="XMLID_56_" d="m411 186h-30c-5.522 0-10-4.477-10-10s4.478-10 10-10h30c5.522 0 10 4.477 10 10s-4.478 10-10 10z" fill="#418cfe" style="fill: rgb(0, 122, 255);"/><path id="XMLID_55_" d="m363.43 143.57c-2.56 0-5.118-.976-7.071-2.929-3.905-3.905-3.905-10.237 0-14.143l21.21-21.21c3.906-3.905 10.236-3.905 14.143 0 3.905 3.905 3.905 10.237 0 14.143l-21.21 21.21c-1.954 1.953-4.513 2.929-7.072 2.929z" fill="#418cfe" style="fill: rgb(0, 122, 255);"/><path id="XMLID_54_" d="m384.64 249.64c-2.56 0-5.118-.976-7.071-2.929l-21.21-21.21c-3.905-3.905-3.905-10.237 0-14.143 3.906-3.905 10.236-3.905 14.143 0l21.21 21.21c3.905 3.905 3.905 10.237 0 14.143-1.954 1.953-4.513 2.929-7.072 2.929z" fill="#418cfe" style="fill: rgb(0, 122, 255);"/></g></g></g></svg>